<svg xmlns="http://www.w3.org/2000/svg" xmlns:xlink="http://www.w3.org/1999/xlink" id="svg2" width="1000" height="1000" version="1.1" xml:space="preserve"><metadata id="metadata8"/><defs id="defs6"><clipPath id="clipPath16" clipPathUnits="userSpaceOnUse"><path id="path18" d="M 0,0 800,0 800,800 0,800 0,0 z"/></clipPath><radialGradient id="radialGradient24" cx="0" cy="0" r="1" fx="0" fy="0" gradientTransform="matrix(610.56799,0,0,-610.56799,400,400)" gradientUnits="userSpaceOnUse" spreadMethod="pad"><stop style="stop-opacity:1;stop-color:#a97c50" id="stop26" offset="0"/><stop style="stop-opacity:1;stop-color:#3c2415" id="stop28" offset="1"/></radialGradient><clipPath id="clipPath36" clipPathUnits="userSpaceOnUse"><path id="path38" d="M 0,800 800,800 800,0 0,0 0,800 z"/></clipPath><clipPath id="clipPath44" clipPathUnits="userSpaceOnUse"><path id="path46" d="m 128.672,751.83 529.701,0 0,-53.714 -529.701,0 0,53.714 z"/></clipPath><clipPath id="clipPath48" clipPathUnits="userSpaceOnUse"><path id="path50" d="m 128.563,752.866 529.923,0 0,-55.786 -529.923,0 0,55.786 z"/></clipPath><clipPath id="clipPath52" clipPathUnits="userSpaceOnUse"><path id="path54" d="m 658.373,722.954 c 0.113,14.795 -118.382,27.686 -264.653,28.799 -146.265,1.113 -264.933,-9.971 -265.048,-24.766 -0.11,-14.785 118.374,-27.68 264.641,-28.794 146.265,-1.113 264.947,9.976 265.06,24.761"/></clipPath><clipPath id="clipPath56" clipPathUnits="userSpaceOnUse"><path id="path58" d="m -24174,24974 32766,0 0,-32766 -32766,0 0,32766 z"/></clipPath><clipPath id="clipPath60" clipPathUnits="userSpaceOnUse"><path id="path62" d="m -24174,24974 32766,0 0,-32766 -32766,0 0,32766 z"/></clipPath><radialGradient id="radialGradient78" cx="0" cy="0" r="1" fx="0" fy="0" gradientTransform="matrix(264.94162,-2.02297,-0.202297,-26.770634,393.52246,724.97266)" gradientUnits="userSpaceOnUse" spreadMethod="pad"><stop style="stop-opacity:1;stop-color:#fff" id="stop80" offset="0"/><stop style="stop-opacity:1;stop-color:#231f20" id="stop82" offset="1"/></radialGradient><mask id="mask84" width="1" height="1" x="0" y="0" maskUnits="userSpaceOnUse"><g id="g86"><g id="g88" clip-path="url(#clipPath44)" opacity=".9"><g id="g90"><g id="g94"><g id="g96" clip-path="url(#clipPath48)"><g id="g98"><g id="g100" clip-path="url(#clipPath52)"><g id="g102"><g id="g106" mask="url(#mask64)"><g id="g108"><path d="m 658.373,722.954 c 0.113,14.795 -118.382,27.686 -264.653,28.799 -146.265,1.113 -264.933,-9.971 -265.048,-24.766 -0.11,-14.785 118.374,-27.68 264.641,-28.794 146.265,-1.113 264.947,9.976 265.06,24.761" style="fill:url(#radialGradient78);stroke:none" id="path110"/></g></g></g></g></g></g></g></g></g></g></mask><clipPath id="clipPath116" clipPathUnits="userSpaceOnUse"><path id="path118" d="m 128.672,751.83 529.701,0 0,-53.714 -529.701,0 0,53.714 z"/></clipPath><radialGradient id="radialGradient124" cx="0" cy="0" r="1" fx="0" fy="0" gradientTransform="matrix(264.94162,-2.02297,-0.202297,-26.770634,393.52246,724.97266)" gradientUnits="userSpaceOnUse" spreadMethod="pad"><stop style="stop-opacity:1;stop-color:#666" id="stop126" offset="0"/><stop style="stop-opacity:1;stop-color:#f2f2f2" id="stop128" offset="1"/></radialGradient><linearGradient id="linearGradient156" x1="0" x2="1" y1="0" y2="0" gradientTransform="matrix(-523.34747,-15.026128,-15.026128,523.34747,662.22461,399.26172)" gradientUnits="userSpaceOnUse" spreadMethod="pad"><stop style="stop-opacity:1;stop-color:#939598" id="stop158" offset="0"/><stop style="stop-opacity:1;stop-color:#f1f2f2" id="stop160" offset=".918"/><stop style="stop-opacity:1;stop-color:#a7a9ac" id="stop162" offset="1"/></linearGradient><linearGradient id="linearGradient178" x1="0" x2="1" y1="0" y2="0" gradientTransform="matrix(-529.09326,-4.63e-5,-4.63e-5,529.09326,662.24121,387.85645)" gradientUnits="userSpaceOnUse" spreadMethod="pad"><stop style="stop-opacity:1;stop-color:#bcbec0" id="stop180" offset="0"/><stop style="stop-opacity:1;stop-color:#f1f2f2" id="stop182" offset=".918"/><stop style="stop-opacity:1;stop-color:#a7a9ac" id="stop184" offset="1"/></linearGradient><linearGradient id="linearGradient200" x1="0" x2="1" y1="0" y2="0" gradientTransform="matrix(-542.742,22.815655,22.815655,542.742,661.43945,368.79395)" gradientUnits="userSpaceOnUse" spreadMethod="pad"><stop style="stop-opacity:1;stop-color:#d1d3d4" id="stop202" offset="0"/><stop style="stop-opacity:1;stop-color:#f1f2f2" id="stop204" offset=".918"/><stop style="stop-opacity:1;stop-color:#a7a9ac" id="stop206" offset="1"/></linearGradient><clipPath id="clipPath214" clipPathUnits="userSpaceOnUse"><path id="path216" d="M 0,800 800,800 800,0 0,0 0,800 z"/></clipPath><clipPath id="clipPath222" clipPathUnits="userSpaceOnUse"><path id="path224" d="m 136.672,69.8281 529.701,0 0,-53.709 -529.701,0 0,53.709 z"/></clipPath><clipPath id="clipPath226" clipPathUnits="userSpaceOnUse"><path id="path228" d="m 136.563,70.8643 529.923,0 0,-55.7813 -529.923,0 0,55.7813 z"/></clipPath><clipPath id="clipPath230" clipPathUnits="userSpaceOnUse"><path id="path232" d="M 666.373,40.957 C 666.486,55.752 547.991,68.638 401.72,69.751 255.455,70.864 136.787,59.78 136.672,44.99 136.562,30.2 255.046,17.305 401.313,16.196 547.578,15.083 666.26,26.172 666.373,40.957"/></clipPath><clipPath id="clipPath234" clipPathUnits="userSpaceOnUse"><path id="path236" d="m -24174,24974 32766,0 0,-32766 -32766,0 0,32766 z"/></clipPath><clipPath id="clipPath238" clipPathUnits="userSpaceOnUse"><path id="path240" d="m -24174,24974 32766,0 0,-32766 -32766,0 0,32766 z"/></clipPath><radialGradient id="radialGradient256" cx="0" cy="0" r="1" fx="0" fy="0" gradientTransform="matrix(264.92892,-2.0228732,-0.2022873,-26.769352,401.52344,42.973633)" gradientUnits="userSpaceOnUse" spreadMethod="pad"><stop style="stop-opacity:1;stop-color:#fff" id="stop258" offset="0"/><stop style="stop-opacity:1;stop-color:#231f20" id="stop260" offset="1"/></radialGradient><mask id="mask262" width="1" height="1" x="0" y="0" maskUnits="userSpaceOnUse"><g id="g264"><g id="g266" clip-path="url(#clipPath222)" opacity=".4"><g id="g268"><g id="g272"><g id="g274" clip-path="url(#clipPath226)"><g id="g276"><g id="g278" clip-path="url(#clipPath230)"><g id="g280"><g id="g284" mask="url(#mask242)"><g id="g286"><path d="M 666.373,40.957 C 666.486,55.752 547.991,68.638 401.72,69.751 255.455,70.864 136.787,59.78 136.672,44.99 136.562,30.2 255.046,17.305 401.313,16.196 547.578,15.083 666.26,26.172 666.373,40.957" style="fill:url(#radialGradient256);stroke:none" id="path288"/></g></g></g></g></g></g></g></g></g></g></mask><clipPath id="clipPath294" clipPathUnits="userSpaceOnUse"><path id="path296" d="m 136.672,69.8281 529.701,0 0,-53.709 -529.701,0 0,53.709 z"/></clipPath><radialGradient id="radialGradient302" cx="0" cy="0" r="1" fx="0" fy="0" gradientTransform="matrix(264.92892,-2.0228732,-0.2022873,-26.769352,401.52344,42.973633)" gradientUnits="userSpaceOnUse" spreadMethod="pad"><stop style="stop-opacity:1;stop-color:#666" id="stop304" offset="0"/><stop style="stop-opacity:1;stop-color:#f2f2f2" id="stop306" offset="1"/></radialGradient><clipPath id="clipPath326" clipPathUnits="userSpaceOnUse"><path id="path328" d="m 115.025,735.825 53.814,0 0,-684.6287 -53.814,0 0,684.6287 z"/></clipPath><clipPath id="clipPath330" clipPathUnits="userSpaceOnUse"><path id="path332" d="m 113.715,735.937 56.435,0 0,-684.8481 -56.435,0 0,684.8481 z"/></clipPath><clipPath id="clipPath334" clipPathUnits="userSpaceOnUse"><path id="path336" d="m 144.54,735.825 c -14.794,0.112 -27.948,-153.066 -29.387,-342.119 -1.438,-189.043 9.383,-342.393 24.174,-342.51 14.789,-0.107 27.947,153.057 29.384,342.105 1.439,189.043 -9.386,342.407 -24.171,342.524"/></clipPath><clipPath id="clipPath338" clipPathUnits="userSpaceOnUse"><path id="path340" d="m -24174,24974 32766,0 0,-32766 -32766,0 0,32766 z"/></clipPath><clipPath id="clipPath342" clipPathUnits="userSpaceOnUse"><path id="path344" d="m -24174,24974 32766,0 0,-32766 -32766,0 0,32766 z"/></clipPath><radialGradient id="radialGradient360" cx="0" cy="0" r="1" fx="0" fy="0" gradientTransform="matrix(2.5961237,342.41861,26.770418,-0.2022953,141.93262,393.51074)" gradientUnits="userSpaceOnUse" spreadMethod="pad"><stop style="stop-opacity:1;stop-color:#fff" id="stop362" offset="0"/><stop style="stop-opacity:1;stop-color:#231f20" id="stop364" offset="1"/></radialGradient><mask id="mask366" width="1" height="1" x="0" y="0" maskUnits="userSpaceOnUse"><g id="g368"><g id="g370" clip-path="url(#clipPath326)" opacity=".4"><g id="g372"><g id="g376"><g id="g378" clip-path="url(#clipPath330)"><g id="g380"><g id="g382" clip-path="url(#clipPath334)"><g id="g384"><g id="g388" mask="url(#mask346)"><g id="g390"><path d="m 144.54,735.825 c -14.794,0.112 -27.948,-153.066 -29.387,-342.119 -1.438,-189.043 9.383,-342.393 24.174,-342.51 14.789,-0.107 27.947,153.057 29.384,342.105 1.439,189.043 -9.386,342.407 -24.171,342.524" style="fill:url(#radialGradient360);stroke:none" id="path392"/></g></g></g></g></g></g></g></g></g></g></mask><clipPath id="clipPath398" clipPathUnits="userSpaceOnUse"><path id="path400" d="m 115.025,735.825 53.814,0 0,-684.6287 -53.814,0 0,684.6287 z"/></clipPath><radialGradient id="radialGradient406" cx="0" cy="0" r="1" fx="0" fy="0" gradientTransform="matrix(2.5961237,342.41861,26.770418,-0.2022953,141.93262,393.51074)" gradientUnits="userSpaceOnUse" spreadMethod="pad"><stop style="stop-opacity:1;stop-color:#666" id="stop408" offset="0"/><stop style="stop-opacity:1;stop-color:#f2f2f2" id="stop410" offset="1"/></radialGradient><clipPath id="clipPath430" clipPathUnits="userSpaceOnUse"><path id="path432" d="m 619.025,735.825 53.815,0 0,-684.6287 -53.815,0 0,684.6287 z"/></clipPath><clipPath id="clipPath434" clipPathUnits="userSpaceOnUse"><path id="path436" d="m 617.715,735.937 56.435,0 0,-684.8481 -56.435,0 0,684.8481 z"/></clipPath><clipPath id="clipPath438" clipPathUnits="userSpaceOnUse"><path id="path440" d="m 648.54,735.825 c -14.794,0.112 -27.948,-153.066 -29.387,-342.119 -1.438,-189.043 9.382,-342.393 24.173,-342.51 14.789,-0.107 27.947,153.057 29.385,342.105 1.439,189.043 -9.386,342.407 -24.171,342.524"/></clipPath><clipPath id="clipPath442" clipPathUnits="userSpaceOnUse"><path id="path444" d="m -24174,24974 32766,0 0,-32766 -32766,0 0,32766 z"/></clipPath><clipPath id="clipPath446" clipPathUnits="userSpaceOnUse"><path id="path448" d="m -24174,24974 32766,0 0,-32766 -32766,0 0,32766 z"/></clipPath><radialGradient id="radialGradient464" cx="0" cy="0" r="1" fx="0" fy="0" gradientTransform="matrix(2.596139,342.42062,26.770575,-0.2022965,645.93262,393.51074)" gradientUnits="userSpaceOnUse" spreadMethod="pad"><stop style="stop-opacity:1;stop-color:#fff" id="stop466" offset="0"/><stop style="stop-opacity:1;stop-color:#231f20" id="stop468" offset="1"/></radialGradient><mask id="mask470" width="1" height="1" x="0" y="0" maskUnits="userSpaceOnUse"><g id="g472"><g id="g474" clip-path="url(#clipPath430)" opacity=".4"><g id="g476"><g id="g480"><g id="g482" clip-path="url(#clipPath434)"><g id="g484"><g id="g486" clip-path="url(#clipPath438)"><g id="g488"><g id="g492" mask="url(#mask450)"><g id="g494"><path d="m 648.54,735.825 c -14.794,0.112 -27.948,-153.066 -29.387,-342.119 -1.438,-189.043 9.382,-342.393 24.173,-342.51 14.789,-0.107 27.947,153.057 29.385,342.105 1.439,189.043 -9.386,342.407 -24.171,342.524" style="fill:url(#radialGradient464);stroke:none" id="path496"/></g></g></g></g></g></g></g></g></g></g></mask><clipPath id="clipPath502" clipPathUnits="userSpaceOnUse"><path id="path504" d="m 619.025,735.825 53.815,0 0,-684.6287 -53.815,0 0,684.6287 z"/></clipPath><radialGradient id="radialGradient510" cx="0" cy="0" r="1" fx="0" fy="0" gradientTransform="matrix(2.596139,342.42062,26.770575,-0.2022965,645.93262,393.51074)" gradientUnits="userSpaceOnUse" spreadMethod="pad"><stop style="stop-opacity:1;stop-color:#666" id="stop512" offset="0"/><stop style="stop-opacity:1;stop-color:#f2f2f2" id="stop514" offset="1"/></radialGradient><linearGradient id="linearGradient542" x1="0" x2="1" y1="0" y2="0" gradientTransform="matrix(-529.09326,-4.63e-5,-4.63e-5,529.09326,662.24121,387.85645)" gradientUnits="userSpaceOnUse" spreadMethod="pad"><stop style="stop-opacity:1;stop-color:#e6e7e8" id="stop544" offset="0"/><stop style="stop-opacity:1;stop-color:#f1f2f2" id="stop546" offset=".918"/><stop style="stop-opacity:1;stop-color:#d1d3d4" id="stop548" offset="1"/></linearGradient><clipPath id="clipPath574" clipPathUnits="userSpaceOnUse"><path id="path576" d="M 0,800 800,800 800,0 0,0 0,800 z"/></clipPath><clipPath id="clipPath582" clipPathUnits="userSpaceOnUse"><path id="path584" d="m 182,588.999 174,0 0,-520 -174,0 0,520 z"/></clipPath><linearGradient id="linearGradient730" x1="0" x2="1" y1="0" y2="0" gradientTransform="matrix(72.442032,70.632767,70.632767,-72.442032,500.89258,598.33398)" gradientUnits="userSpaceOnUse" spreadMethod="pad"><stop style="stop-opacity:1;stop-color:#fff" id="stop732" offset="0"/><stop style="stop-opacity:1;stop-color:#f1f2f2" id="stop734" offset=".751"/><stop style="stop-opacity:1;stop-color:#a7a9ac" id="stop736" offset="1"/></linearGradient><clipPath id="clipPath744" clipPathUnits="userSpaceOnUse"><path id="path746" d="M 0,800 800,800 800,0 0,0 0,800 z"/></clipPath><clipPath id="clipPath840" clipPathUnits="userSpaceOnUse"><path id="path842" d="m 0,0 243.805,0 0,393.819 L 0,393.819 0,0 z"/></clipPath><clipPath id="clipPath876" clipPathUnits="userSpaceOnUse"><path id="path878" d="M 556.195,0 800,0 l 0,393.819 -243.805,0 0,-393.819 z"/></clipPath><clipPath id="clipPath912" clipPathUnits="userSpaceOnUse"><path id="path914" d="M 0,800 800,800 800,0 0,0 0,800 z"/></clipPath><clipPath id="clipPath582-4" clipPathUnits="userSpaceOnUse"><path id="path584-1" d="m 182,588.999 174,0 0,-520 -174,0 0,520 z"/></clipPath><clipPath id="clipPath582-4-4" clipPathUnits="userSpaceOnUse"><path id="path584-1-3" d="m 182,588.999 174,0 0,-520 -174,0 0,520 z"/></clipPath><linearGradient id="linearGradient3890-7"><stop id="stop3892-1" offset="0" style="stop-color:#fff;stop-opacity:1"/><stop id="stop3894-4" offset="1" style="stop-color:#e5e5e5;stop-opacity:1"/></linearGradient><linearGradient id="linearGradient3387"><stop id="stop3389" offset="0" style="stop-color:#fff;stop-opacity:1"/><stop id="stop3391" offset="1" style="stop-color:#e5e5e5;stop-opacity:1"/></linearGradient><linearGradient id="linearGradient3364" x1="298.845" x2="346.155" y1="578.274" y2="621.659" gradientUnits="userSpaceOnUse" xlink:href="#linearGradient3890-7"/><linearGradient id="linearGradient3394"><stop id="stop3396" offset="0" style="stop-color:#fff;stop-opacity:1"/><stop id="stop3398" offset="1" style="stop-color:#e5e5e5;stop-opacity:1"/></linearGradient></defs><g id="g10" transform="matrix(1.25,0,0,-1.25,0,1000)"><path style="fill:#ffa245;fill-opacity:1;stroke:none" id="path4448" d="M 345.02335,22.844263 C 132.32271,129.77962 118.7686,261.08406 189.05757,403.50682 c 71.64084,145.16282 193.31644,262.56576 153.84753,339.64027 -6.10275,11.91737 -81.07861,53.00493 23.55065,19.48834 C 466.62361,730.54805 585.53279,559.39129 627.55313,457.14201 720.9397,229.90222 495.47393,21.473735 480.54768,28.716575 c -14.92533,7.242945 20.27503,8.903388 41.96026,63.484116 23.14598,58.258239 -8.65979,39.785749 -8.65979,39.785749 0,0 -30.52447,-37.018447 -53.1888,-36.897578 -25.52399,0.135831 -55.36425,-7.550333 -29.8864,81.002818 25.47725,88.55326 -15.42263,204.06718 -15.42263,204.06718 0,0 -47.80486,-46.52842 -87.50437,-120.28698 C 257.84147,129.8072 274.69897,98.696221 351.47497,45.016375 365.18023,35.434102 345.02335,22.844263 345.02335,22.844263 Z"/></g></svg>