<svg xmlns="http://www.w3.org/2000/svg" id="svg3812" width="173.781" height="173.813" version="1.1"><metadata id="metadata3817"/><g id="layer1" transform="translate(-435.96875,-348.3125)"><path style="fill:#fff;fill-opacity:1;stroke:none" id="path4448" d="m 508.62387,513.29098 c -48.93474,-21.72682 -52.05306,-48.40489 -35.8821,-77.34195 16.48197,-29.49377 44.47513,-53.34736 35.39476,-69.00715 -1.40403,-2.42134 -18.65326,-10.76939 5.41816,-3.95959 23.045,6.51943 50.40171,41.29458 60.06906,62.0693 21.48487,46.16993 -30.38664,88.51782 -33.82064,87.04628 -3.43378,-1.47161 4.66455,-1.80897 9.65354,-12.89855 5.32506,-11.83675 -1.9923,-8.08354 -1.9923,-8.08354 0,0 -7.02258,7.5213 -12.23682,7.49676 -5.87215,-0.0278 -12.73731,1.53406 -6.87578,-16.45792 5.86139,-17.99203 -3.5482,-41.46181 -3.5482,-41.46181 0,0 -10.99816,9.45351 -20.13159,24.43956 -16.10549,26.42619 -12.22719,32.74722 5.43619,43.65375 3.15308,1.94688 -1.48428,4.50486 -1.48428,4.50486 z"/></g></svg>